<?xml version="1.0" encoding="UTF-8"?>
<!-- Created with Inkscape (http://www.inkscape.org/) -->
<svg width="342.98mm" height="102.77mm" version="1.1" viewBox="0 0 342.98 102.77" xmlns="http://www.w3.org/2000/svg" xmlns:cc="http://creativecommons.org/ns#" xmlns:dc="http://purl.org/dc/elements/1.1/" xmlns:rdf="http://www.w3.org/1999/02/22-rdf-syntax-ns#">
 <metadata>
  <rdf:RDF>
   <cc:Work rdf:about="">
    <dc:format>image/svg+xml</dc:format>
    <dc:type rdf:resource="http://purl.org/dc/dcmitype/StillImage"/>
    <dc:title/>
   </cc:Work>
  </rdf:RDF>
 </metadata>
 <g transform="translate(36.173 -88.551)">
  <rect x="-24.453" y="100.27" width="319.54" height="79.327" stroke="#fff" stroke-width="23.441" style="paint-order:stroke fill markers"/>
  <g fill="#fff">
   <path d="m13.973 157.27c6.1436 0 11.097-2.2384 14.335-6.2865l-6.0008-5.4292c-2.0955 2.5241-4.6672 3.9052-7.8581 3.9052-5.4769 0-9.2869-3.81-9.2869-9.525s3.81-9.525 9.2869-9.525c3.1909 0 5.7626 1.3811 7.8581 3.9052l6.0008-5.4292c-3.2385-4.0481-8.1915-6.2865-14.335-6.2865-10.573 0-18.336 7.1914-18.336 17.336 0 10.144 7.7629 17.336 18.336 17.336z"/>
   <path d="m67.448 123.27h-9.144l-7.9057 13.24-7.9058-13.24h-9.9536l12.716 21.241v12.097h9.4297v-11.954z"/>
   <path d="m89.57 122.6c-10.573 0-18.336 7.1912-18.336 17.335 0 6.9919 3.6883 12.58 9.4423 15.378l6.0307-6.3831c-3.6253-1.2327-5.948-4.5331-5.948-8.9953 0-5.715 3.81-9.525 9.2868-9.525 3.1909 0 5.7629 1.3811 7.8584 3.9052l6.0007-5.4291c-3.2385-4.0481-8.1915-6.2864-14.335-6.2864zm8.3344 22.955c-0.3795 0.4572-0.7753 0.87548-1.187 1.2563l-9.7374 10.306c0.8424 0.0982 1.7054 0.15295 2.59 0.15295 6.1436 0 11.097-2.2383 14.335-6.2864z"/>
   <path d="m112.61 156.6h25.336v-7.4771h-15.907v-25.86h-9.4298z"/>
   <path d="m146.13 156.6h9.4298v-33.338h-9.4298z"/>
   <path d="m166.81 123.27v33.338h9.3343v-8.3344l3.5244-3.7626 0.018 0.0227 6.1324-6.4906-0.01-9e-3 13.621-14.763h-10.382l-12.906 13.859v-13.859zm22.61 19.438-6.0926 6.4487 5.8668 7.4512h10.954z"/>
   <path d="m230.49 156.6h9.8107l-14.764-33.338h-9.2869l-14.716 33.338h9.6202l2.6194-6.477h14.097zm-13.954-13.43 4.2863-10.668 4.2862 10.668z"/>
   <path d="m247.43 156.6h25.336v-7.4771h-15.907v-25.86h-9.4297z"/>
  </g>
 </g>
</svg>
